<svg width="500" height="500" viewBox="0 0 500 500" fill="none" xmlns="http://www.w3.org/2000/svg">
<rect width="500" height="500" fill="#F0F0F0"/>
<path d="M112.522 256.069C114.673 256.069 116.465 255.098 117.899 253.156C119.404 251.214 120.623 248.844 121.555 246.047C122.559 243.25 123.276 240.337 123.706 237.307C124.136 234.277 124.351 231.636 124.351 229.383C124.351 227.285 124.029 225.537 123.384 224.139C122.738 222.662 121.34 221.924 119.189 221.924H114.35L107.575 256.069H112.522ZM106.069 263.528L101.23 288H78L92.5185 214H117.361C121.448 214 125.176 214.233 128.546 214.699C131.915 215.165 134.819 216.098 137.257 217.496C139.694 218.894 141.594 220.914 142.957 223.556C144.319 226.12 145 229.577 145 233.928C145 237.967 144.391 241.813 143.172 245.465C142.025 249.038 140.125 252.185 137.472 254.904C134.891 257.545 131.521 259.643 127.363 261.197C123.204 262.751 118.15 263.528 112.199 263.528H106.069Z" fill="#353535"/>
<path d="M150.891 238.272H168.609L170.239 246.945H171C172.667 244.17 174.804 241.819 177.413 239.891C180.022 237.964 183.464 237 187.739 237C188.029 237 188.464 237.039 189.044 237.116C189.696 237.116 190.384 237.231 191.109 237.463C191.906 237.617 192.703 237.887 193.5 238.272C194.37 238.58 195.203 239.043 196 239.66L191.218 263.483H179.37C179.225 258.703 178.826 255.388 178.174 253.537C177.522 251.61 176.471 250.646 175.022 250.646C174.297 250.646 173.5 250.839 172.631 251.224C171.833 251.533 171 252.265 170.131 253.422L163.174 288H141L150.891 238.272Z" fill="#353535"/>
<path d="M228.403 237C236.888 237 243.054 238.621 246.905 241.864C250.968 245.261 253 250.897 253 258.773C253 263.637 252.252 268.038 250.755 271.976C249.257 275.836 247.154 279.04 244.445 281.588C239.026 286.529 231.185 289 220.917 289C212.148 289 205.875 287.186 202.096 283.557C198.032 279.774 196 274.099 196 266.532C196 261.514 196.926 256.958 198.78 252.866C200.705 248.774 203.45 245.377 207.015 242.675C212.219 238.892 219.349 237 228.403 237ZM221.131 281.125C222.914 281.125 224.446 280.044 225.73 277.882C227.084 275.72 228.154 273.095 228.938 270.007C229.722 266.841 230.293 263.598 230.65 260.278C231.077 256.881 231.291 253.947 231.291 251.477C231.291 249.315 231.077 247.693 230.65 246.612C230.293 245.454 229.473 244.875 228.19 244.875C226.265 244.875 224.59 245.995 223.164 248.234C221.808 250.473 220.704 253.137 219.849 256.225C218.992 259.313 218.351 262.479 217.923 265.722C217.567 268.964 217.389 271.589 217.389 273.597C217.389 278.615 218.636 281.125 221.131 281.125Z" fill="#353535"/>
<path d="M322 230.898C322 233.151 321.676 235.171 321.031 236.957C320.456 238.744 319.63 240.337 318.555 241.735C317.478 243.134 316.222 244.377 314.786 245.465C313.35 246.552 311.771 247.562 310.049 248.495C310.838 248.805 311.771 249.31 312.848 250.009C313.925 250.631 314.965 251.524 315.97 252.69C316.975 253.855 317.8 255.37 318.447 257.235C319.165 259.021 319.524 261.236 319.524 263.877C319.524 267.373 318.841 270.597 317.478 273.55C316.114 276.502 314.068 279.066 311.34 281.241C308.685 283.339 305.382 285.009 301.435 286.252C297.559 287.417 293.073 288 287.976 288H256L270.534 214H298.851C301.651 214 304.413 214.233 307.142 214.699C309.941 215.088 312.417 215.903 314.571 217.146C316.795 218.39 318.59 220.138 319.954 222.391C321.317 224.566 322 227.402 322 230.898ZM292.714 244.998C294.293 244.998 295.621 244.493 296.698 243.483C297.847 242.474 298.779 241.23 299.497 239.754C300.215 238.2 300.753 236.569 301.112 234.86C301.471 233.073 301.651 231.48 301.651 230.082C301.651 227.829 301.148 225.925 300.144 224.372C299.21 222.74 297.702 221.924 295.621 221.924H292.391L287.762 244.998H292.714ZM284.962 280.658C287.115 280.658 288.91 279.998 290.345 278.677C291.781 277.356 292.966 275.725 293.898 273.783C294.832 271.84 295.477 269.821 295.836 267.723C296.268 265.547 296.482 263.644 296.482 262.013C296.482 259.293 295.944 257.157 294.867 255.603C293.863 253.972 292.211 253.156 289.914 253.156H285.931L280.655 280.658H284.962Z" fill="#4392F1"/>
<path d="M343.435 288H322L331.61 238.203H353.255L343.435 288ZM356 223.033C356 224.809 355.648 226.353 354.945 227.665C354.311 228.978 353.431 230.097 352.305 231.024C351.249 231.95 350.017 232.645 348.61 233.108C347.201 233.571 345.758 233.803 344.279 233.803C341.464 233.803 339.106 233.069 337.205 231.602C335.305 230.136 334.355 227.819 334.355 224.654C334.355 222.956 334.671 221.45 335.305 220.138C335.939 218.748 336.783 217.629 337.839 216.779C338.965 215.853 340.232 215.158 341.64 214.695C343.119 214.232 344.631 214 346.181 214C348.926 214 351.249 214.733 353.149 216.2C355.05 217.667 356 219.945 356 223.033Z" fill="#4392F1"/>
<path d="M375.341 288H353L368.551 210H391L375.341 288Z" fill="#4392F1"/>
<path d="M406.752 288H385L400.142 210H422L406.752 288Z" fill="#4392F1"/>
</svg>
